<?xml version="1.0" encoding="utf-8"?>
<!-- Generator: Adobe Illustrator 23.0.0, SVG Export Plug-In . SVG Version: 6.00 Build 0)  -->
<svg version="1.1" id="Layer_1" xmlns="http://www.w3.org/2000/svg" xmlns:xlink="http://www.w3.org/1999/xlink" x="0px" y="0px"
	 viewBox="0 0 530.3 469.1" style="enable-background:new 0 0 530.3 469.1;" xml:space="preserve">
<style type="text/css">
	.st0{fill:none;stroke:#6666CC;stroke-width:35;stroke-linejoin:round;stroke-miterlimit:10;}
	.st1{fill:none;stroke:#6666CC;stroke-width:30;stroke-miterlimit:10;}
	.st2{fill:#6666CC;stroke:#6666CC;stroke-width:13;stroke-miterlimit:10;}
</style>
<path class="st0" d="M474.8,451.6H55.4c-21,0-37.9-17-37.9-37.9V129.9V55.4c0-21,17-37.9,37.9-37.9h419.4c21,0,37.9,17,37.9,37.9
	v358.3C512.8,434.7,495.8,451.6,474.8,451.6z"/>
<path class="st1" d="M346.8,363.5H183.7c-4.8,0-9.1-1.9-12.2-5.1c-4.3-4.3-5.6-10.7-3.6-16.4l25.3-73.4c3.8-11,14.1-18.3,25.7-18.3
	h92.9c11.6,0,21.9,7.4,25.7,18.3l25.1,72.6c3.6,10.6-3.9,21.9-15,22.2C347.2,363.4,347,363.5,346.8,363.5z"/>
<circle class="st1" cx="265.1" cy="177.4" r="37.6"/>
<path class="st2" d="M512.1,123.6h-65.7c-9.1,0-16.5-7.4-16.5-16.5V32l-16.2,0v81.4c0,14.5,11.8,26.3,26.3,26.3h72.8L512.1,123.6z"
	/>
</svg>
