<?xml version="1.0" encoding="utf-8"?>
<!-- Generator: Adobe Illustrator 23.0.0, SVG Export Plug-In . SVG Version: 6.00 Build 0)  -->
<svg version="1.1" id="Layer_1" xmlns="http://www.w3.org/2000/svg" xmlns:xlink="http://www.w3.org/1999/xlink" x="0px" y="0px"
	 viewBox="0 0 269.7 251.8" style="enable-background:new 0 0 269.7 251.8;" xml:space="preserve">
<style type="text/css">
	.st0{fill:#5E5CDB;}
	.st1{fill:#6666CC;}
</style>
<g>
	<g>
		<line class="st0" x1="77.7" y1="7.1" x2="77.3" y2="41"/>
	</g>
	<g>
		<path class="st0" d="M84.7,43.1c-1,2.9-4,5-7.5,4.9c-4.3,0-7.7-3.3-7.7-7.2L70,7c0.1-3.9,3.6-7,7.9-7c4.3,0,7.7,3.3,7.7,7.2
			L85,41.1C85,41.8,84.9,42.5,84.7,43.1z"/>
	</g>
</g>
<g>
	<g>
		<line class="st0" x1="189.8" y1="7.1" x2="189.4" y2="41"/>
	</g>
	<g>
		<path class="st0" d="M196.8,43.1c-1,2.9-4,5-7.5,4.9c-4.3,0-7.7-3.3-7.7-7.2L182.1,7c0.1-3.9,3.6-7,7.9-7c4.3,0,7.7,3.3,7.7,7.2
			l-0.5,33.9C197.1,41.8,197,42.5,196.8,43.1z"/>
	</g>
</g>
<g>
	<path class="st1" d="M241.5,251.8H28.2C12.6,251.8,0,239.1,0,223.6V41.4c0-15.5,12.6-28.2,28.2-28.2h213.3
		c15.5,0,28.2,12.6,28.2,28.2v182.2C269.7,239.1,257,251.8,241.5,251.8z M28.2,31c-5.7,0-10.4,4.7-10.4,10.4v182.2
		c0,5.7,4.7,10.4,10.4,10.4h213.3c5.7,0,10.4-4.7,10.4-10.4V41.4c0-5.7-4.7-10.4-10.4-10.4H28.2z"/>
</g>
<g>
	<rect x="8.9" y="72.3" class="st1" width="251.9" height="17.8"/>
</g>
<g>
	<g>
		<g>
			<path class="st0" d="M48.5,110H65c1.1,0,1.9,0.9,1.9,1.9v16.5c0,1.1-0.9,1.9-1.9,1.9H48.5c-1.1,0-1.9-0.9-1.9-1.9v-16.5
				C46.6,110.9,47.4,110,48.5,110z"/>
		</g>
	</g>
</g>
<g>
	<g>
		<g>
			<path class="st0" d="M89.2,110h16.5c1.1,0,1.9,0.9,1.9,1.9v16.5c0,1.1-0.9,1.9-1.9,1.9H89.2c-1.1,0-1.9-0.9-1.9-1.9v-16.5
				C87.3,110.9,88.1,110,89.2,110z"/>
		</g>
	</g>
</g>
<g>
	<g>
		<g>
			<path class="st0" d="M129.9,110h16.5c1.1,0,1.9,0.9,1.9,1.9v16.5c0,1.1-0.9,1.9-1.9,1.9h-16.5c-1.1,0-1.9-0.9-1.9-1.9v-16.5
				C127.9,110.9,128.8,110,129.9,110z"/>
		</g>
	</g>
</g>
<g>
	<g>
		<g>
			<path class="st0" d="M170.5,110H187c1.1,0,1.9,0.9,1.9,1.9v16.5c0,1.1-0.9,1.9-1.9,1.9h-16.5c-1.1,0-1.9-0.9-1.9-1.9v-16.5
				C168.6,110.9,169.5,110,170.5,110z"/>
		</g>
	</g>
</g>
<g>
	<g>
		<g>
			<path class="st0" d="M48.5,150.7H65c1.1,0,1.9,0.9,1.9,1.9v16.5c0,1.1-0.9,1.9-1.9,1.9H48.5c-1.1,0-1.9-0.9-1.9-1.9v-16.5
				C46.6,151.5,47.4,150.7,48.5,150.7z"/>
		</g>
	</g>
</g>
<g>
	<g>
		<g>
			<path class="st0" d="M89.2,150.7h16.5c1.1,0,1.9,0.9,1.9,1.9v16.5c0,1.1-0.9,1.9-1.9,1.9H89.2c-1.1,0-1.9-0.9-1.9-1.9v-16.5
				C87.3,151.5,88.1,150.7,89.2,150.7z"/>
		</g>
	</g>
</g>
<g>
	<g>
		<g>
			<path class="st0" d="M129.9,150.7h16.5c1.1,0,1.9,0.9,1.9,1.9v16.5c0,1.1-0.9,1.9-1.9,1.9h-16.5c-1.1,0-1.9-0.9-1.9-1.9v-16.5
				C127.9,151.5,128.8,150.7,129.9,150.7z"/>
		</g>
	</g>
</g>
<g>
	<g>
		<g>
			<path class="st0" d="M170.5,150.7H187c1.1,0,1.9,0.9,1.9,1.9v16.5c0,1.1-0.9,1.9-1.9,1.9h-16.5c-1.1,0-1.9-0.9-1.9-1.9v-16.5
				C168.6,151.5,169.5,150.7,170.5,150.7z"/>
		</g>
	</g>
</g>
<g>
	<g>
		<g>
			<path class="st0" d="M48.5,191.4H65c1.1,0,1.9,0.9,1.9,1.9v16.5c0,1.1-0.9,1.9-1.9,1.9H48.5c-1.1,0-1.9-0.9-1.9-1.9v-16.5
				C46.6,192.2,47.4,191.4,48.5,191.4z"/>
		</g>
	</g>
</g>
<g>
	<g>
		<g>
			<path class="st0" d="M89.2,191.4h16.5c1.1,0,1.9,0.9,1.9,1.9v16.5c0,1.1-0.9,1.9-1.9,1.9H89.2c-1.1,0-1.9-0.9-1.9-1.9v-16.5
				C87.3,192.2,88.1,191.4,89.2,191.4z"/>
		</g>
	</g>
</g>
<g>
	<g>
		<g>
			<path class="st0" d="M129.9,191.4h16.5c1.1,0,1.9,0.9,1.9,1.9v16.5c0,1.1-0.9,1.9-1.9,1.9h-16.5c-1.1,0-1.9-0.9-1.9-1.9v-16.5
				C127.9,192.2,128.8,191.4,129.9,191.4z"/>
		</g>
	</g>
</g>
<g>
	<g>
		<g>
			<path class="st0" d="M170.5,191.4H187c1.1,0,1.9,0.9,1.9,1.9v16.5c0,1.1-0.9,1.9-1.9,1.9h-16.5c-1.1,0-1.9-0.9-1.9-1.9v-16.5
				C168.6,192.2,169.5,191.4,170.5,191.4z"/>
		</g>
	</g>
</g>
<g>
	<g>
		<g>
			<path class="st0" d="M210.2,110h16.5c1.1,0,1.9,0.9,1.9,1.9v16.5c0,1.1-0.9,1.9-1.9,1.9h-16.5c-1.1,0-1.9-0.9-1.9-1.9v-16.5
				C208.3,110.9,209.1,110,210.2,110z"/>
		</g>
	</g>
</g>
<g>
	<g>
		<g>
			<path class="st0" d="M210.2,150.7h16.5c1.1,0,1.9,0.9,1.9,1.9v16.5c0,1.1-0.9,1.9-1.9,1.9h-16.5c-1.1,0-1.9-0.9-1.9-1.9v-16.5
				C208.3,151.5,209.1,150.7,210.2,150.7z"/>
		</g>
	</g>
</g>
<g>
	<g>
		<g>
			<path class="st0" d="M210.2,191.4h16.5c1.1,0,1.9,0.9,1.9,1.9v16.5c0,1.1-0.9,1.9-1.9,1.9h-16.5c-1.1,0-1.9-0.9-1.9-1.9v-16.5
				C208.3,192.2,209.1,191.4,210.2,191.4z"/>
		</g>
	</g>
</g>
</svg>
