<?xml version="1.0" encoding="utf-8"?>
<!-- Generator: Adobe Illustrator 23.0.0, SVG Export Plug-In . SVG Version: 6.00 Build 0)  -->
<svg version="1.1" id="Layer_1" xmlns="http://www.w3.org/2000/svg" xmlns:xlink="http://www.w3.org/1999/xlink" x="0px" y="0px"
	 viewBox="0 0 88.2 88.2" style="enable-background:new 0 0 88.2 88.2;" xml:space="preserve">
<style type="text/css">
	.st0{fill:#5E5CDB;}
</style>
<path class="st0" d="M85.1,61.6L72.9,49.4c-2-2-4.7-3.1-7.5-3.1c-2.8,0-5.5,1.1-7.5,3.1l-5.2,5.2L33.5,35.5l5.2-5.2
	c4.1-4.1,4.1-10.9,0-15L26.6,3.1c-4.1-4.1-10.9-4.1-15,0L8.4,6.3c-11.2,11.2-11.2,29.3,0,40.5l11.8,11.8c0.1,0.1,0.2,0.2,0.3,0.3
	l8.6,8.6c0.1,0.1,0.2,0.2,0.3,0.3l12,12c5.4,5.4,12.6,8.4,20.3,8.4c7.7,0,14.8-3,20.3-8.4l3.2-3.2c2-2,3.1-4.7,3.1-7.5
	C88.2,66.2,87.1,63.6,85.1,61.6z M25.5,21.7c-0.1-0.1-0.1-0.2-0.2-0.3L13.1,9.3l2.3-2.3c2-2,5.4-2,7.4,0L35,19.1
	c1,1,1.5,2.3,1.5,3.7s-0.5,2.7-1.5,3.7l-2.4,2.4L25.5,21.7z M28.8,32.6l-1,1c-0.5,0.5-0.8,1.2-0.8,1.9c0,0.7,0.3,1.4,0.8,1.9
	l22.9,22.9c0.5,0.5,1.2,0.8,1.9,0.8c0.7,0,1.4-0.3,1.9-0.8l1-1l19.3,19.3c-3.9,2.7-8.4,4.1-13.3,4.1c-6.2,0-12.1-2.4-16.5-6.8
	L33.9,64.7l0,0l-12-12l0,0L12.2,43c-8-8-9-20.5-2.7-29.7l8.3,8.3 M82.8,69.1c0,1.4-0.5,2.7-1.5,3.7l-2.3,2.3L59.3,55.5l2.3-2.3
	c1-1,2.3-1.5,3.7-1.5c1.4,0,2.7,0.5,3.7,1.5l12.2,12.2C82.2,66.4,82.8,67.7,82.8,69.1z"/>
<g>
	<circle class="st0" cx="61.3" cy="17.9" r="1.8"/>
	<circle class="st0" cx="68.4" cy="17.9" r="1.8"/>
	<circle class="st0" cx="75.5" cy="17.9" r="1.8"/>
	<path class="st0" d="M60.6,37.3c0.7,0.3,1.4,0.1,1.9-0.4l6.6-6.6h6.4c6.9,0,12.6-5.6,12.6-12.5S82.5,5.4,75.5,5.4H61.3
		c-6.9,0-12.5,5.6-12.5,12.5c0,6.3,4.7,11.5,10.7,12.3v5.5C59.5,36.4,59.9,37.1,60.6,37.3L60.6,37.3z M52.4,17.9
		c0-4.9,4-8.9,8.9-8.9h14.2c5,0,9,4,9,8.9s-4,8.9-9,8.9h-7.1c-0.5,0-0.9,0.2-1.3,0.5l-4.1,4.1v-2.8c0-1-0.8-1.8-1.8-1.8
		C56.4,26.8,52.4,22.8,52.4,17.9z"/>
</g>
</svg>
