<?xml version="1.0" encoding="utf-8"?>
<!-- Generator: Adobe Illustrator 23.0.0, SVG Export Plug-In . SVG Version: 6.00 Build 0)  -->
<svg version="1.1" id="Layer_1" xmlns="http://www.w3.org/2000/svg" xmlns:xlink="http://www.w3.org/1999/xlink" x="0px" y="0px"
	 viewBox="0 0 277.1 280.3" style="enable-background:new 0 0 277.1 280.3;" xml:space="preserve">
<style type="text/css">
	.st0{fill:#5E5CDB;}
</style>
<path class="st0" d="M106.8,93.4H20.2C9.1,93.4,0,84.3,0,73V20.4C0,9.2,9.1,0,20.2,0h86.6C117.9,0,127,9.2,127,20.4V73
	C127,84.3,117.9,93.4,106.8,93.4z M20.2,17.5c-1.6,0-2.9,1.3-2.9,2.9V73c0,1.6,1.3,2.9,2.9,2.9h86.6c1.6,0,2.9-1.3,2.9-2.9V20.4
	c0-1.6-1.3-2.9-2.9-2.9H20.2z"/>
<path class="st0" d="M106.8,280.3H20.2C9.1,280.3,0,271.2,0,259.9V137.2c0-11.3,9.1-20.4,20.2-20.4h86.6c11.1,0,20.2,9.2,20.2,20.4
	v122.6C127,271.2,117.9,280.3,106.8,280.3z M20.2,134.3c-1.6,0-2.9,1.3-2.9,2.9v122.6c0,1.6,1.3,2.9,2.9,2.9h86.6
	c1.6,0,2.9-1.3,2.9-2.9V137.2c0-1.6-1.3-2.9-2.9-2.9H20.2z"/>
<path class="st0" d="M256.9,280.3h-86.6c-11.1,0-20.2-9.2-20.2-20.4v-52.6c0-11.3,9.1-20.4,20.2-20.4h86.6
	c11.1,0,20.2,9.2,20.2,20.4v52.6C277.1,271.2,268,280.3,256.9,280.3z M170.3,204.4c-1.6,0-2.9,1.3-2.9,2.9v52.6
	c0,1.6,1.3,2.9,2.9,2.9h86.6c1.6,0,2.9-1.3,2.9-2.9v-52.6c0-1.6-1.3-2.9-2.9-2.9H170.3z"/>
<path class="st0" d="M256.9,163.5h-86.6c-11.1,0-20.2-9.2-20.2-20.4V20.4c0-11.3,9.1-20.4,20.2-20.4h86.6c11.1,0,20.2,9.2,20.2,20.4
	v122.6C277.1,154.4,268,163.5,256.9,163.5z M170.3,17.5c-1.6,0-2.9,1.3-2.9,2.9v122.6c0,1.6,1.3,2.9,2.9,2.9h86.6
	c1.6,0,2.9-1.3,2.9-2.9V20.4c0-1.6-1.3-2.9-2.9-2.9H170.3z"/>
</svg>
