<?xml version="1.0" encoding="utf-8"?>
<!-- Generator: Adobe Illustrator 23.0.0, SVG Export Plug-In . SVG Version: 6.00 Build 0)  -->
<svg version="1.1" id="Layer_1" xmlns="http://www.w3.org/2000/svg" xmlns:xlink="http://www.w3.org/1999/xlink" x="0px" y="0px"
	 viewBox="0 0 147.8 155.9" style="enable-background:new 0 0 147.8 155.9;" xml:space="preserve">
<style type="text/css">
	.st0{fill:#5E5CDB;}
	.st1{fill:none;}
</style>
<g>
	<path class="st0" d="M31,65.8h85.9c1.9,0,3.5-1.5,3.5-3.5v-4.5c0-1.9-1.5-3.5-3.5-3.5H31c-1.9,0-3.5,1.5-3.5,3.5v4.5
		C27.5,64.3,29,65.8,31,65.8z"/>
	<path class="st0" d="M31,93.4h85.9c1.9,0,3.5-1.5,3.5-3.5v-4.5c0-1.9-1.5-3.5-3.5-3.5H31c-1.9,0-3.5,1.5-3.5,3.5V90
		C27.5,91.9,29,93.4,31,93.4z"/>
	<path class="st0" d="M31,117.5h41.6c1.9,0,3.5-1.5,3.5-3.5v-4.5c0-1.9-1.5-3.5-3.5-3.5H31c-1.9,0-3.5,1.5-3.5,3.5v4.5
		C27.5,116,29,117.5,31,117.5z"/>
	<path class="st1" d="M39.7,27.9v-6.1H14.3l-0.2,26.1v93.6H133l0.9-119.1l-21.6-0.2v5.8c0,0.6-0.5,1.1-1.1,1.1H40.8
		C40.2,29,39.7,28.5,39.7,27.9z"/>
	<path class="st0" d="M147.8,22.1c0.1-7.5-6-13.6-13.5-13.7l-24.5-0.2c1.5,2.4,2.4,5.2,2.4,8.2v5.7l21.6,0.2L133,141.5H14.1V47.9
		l0.2-26.1h25.4v-5.4c0-3.2,1-6.2,2.8-8.7L14.1,7.5c-5.7,0-10.6,3.4-12.6,8.4c-0.8,1.7-1.2,3.6-1.2,5.6v26.3L0,74.2
		c0,0.5,0.1,0.9,0.2,1.3v66.3c0,7.5,6.1,13.6,13.6,13.6h61c0.1,0,0.1,0,0.2,0l58.2,0.5c2.9,0,5.6-0.9,7.8-2.4
		c3.9-2.4,6.6-6.7,6.6-11.6V88.5c0-0.5-0.1-1.1-0.3-1.5L147.8,22.1z"/>
	<path class="st0" d="M97.2,0H54.8c-5.1,0-9.7,2.6-12.4,6.5L109.9,7C107.2,2.8,102.5,0,97.2,0z"/>
	<path class="st0" d="M72,20.6H39.7v3.7c0,1.9,1.5,3.5,3.5,3.5h65.7c1.9,0,3.5-1.5,3.5-3.5v-3.4l-40.1-0.3
		C72.2,20.6,72.1,20.6,72,20.6z"/>
	<path class="st0" d="M39.7,20.6H72c0.1,0,0.2,0,0.3,0l40.1,0.3v-5.7c0-3-0.9-5.8-2.4-8.2L42.4,6.5c-1.7,2.5-2.8,5.5-2.8,8.7V20.6z
		 M49.8,15.2c0-2.8,2.3-5.1,5.1-5.1h42.3c2.8,0,5.1,2.3,5.1,5.1v2.5H49.8V15.2z"/>
</g>
</svg>
