<?xml version="1.0" encoding="utf-8"?>
<!-- Generator: Adobe Illustrator 23.0.0, SVG Export Plug-In . SVG Version: 6.00 Build 0)  -->
<svg version="1.1" id="Layer_1" xmlns="http://www.w3.org/2000/svg" xmlns:xlink="http://www.w3.org/1999/xlink" x="0px" y="0px"
	 viewBox="0 0 594.4 479.8" style="enable-background:new 0 0 594.4 479.8;" xml:space="preserve">
<style type="text/css">
	.st0{fill:#5E5CDB;}
</style>
<g>
	<path class="st0" d="M403.3,479.8H53.4c-14.6,0-28.3-5.7-38.6-16c-13.7-13.7-18.4-34.6-12-53.2l54.3-157.4
		c10.5-30.6,39.4-51.1,71.7-51.1h199.1c32.3,0,61.1,20.5,71.7,51.1l53.7,155.7c5.5,16,3.1,34-6.5,48c-9.6,14-24.8,22.3-41.6,22.9
		C404.5,479.8,403.9,479.8,403.3,479.8z M128.8,237c-17.4,0-32.9,11.1-38.6,27.5L35.9,422c-2.1,6.1-0.7,12.8,3.6,17.1
		c3.7,3.7,8.6,5.7,13.9,5.7h349.8c0.2,0,0.5,0,0.7,0c5.6-0.2,10.7-3,13.9-7.7c3.4-5,4.3-11.1,2.3-16.7l-53.7-155.7
		c-5.7-16.5-21.2-27.5-38.6-27.5H128.8z"/>
</g>
<g>
	<path class="st0" d="M228.1,196.4c-54.1,0-98.2-44-98.2-98.2S174,0,228.1,0c54.1,0,98.2,44,98.2,98.2S282.2,196.4,228.1,196.4z
		 M228.1,35c-34.8,0-63.2,28.3-63.2,63.2s28.3,63.2,63.2,63.2c34.8,0,63.2-28.3,63.2-63.2S262.9,35,228.1,35z"/>
</g>
<g>
	<path class="st0" d="M422.5,192.1c-35.5,0-64.4-28.9-64.4-64.4c0-35.5,28.9-64.4,64.4-64.4s64.4,28.9,64.4,64.4
		C486.9,163.2,458,192.1,422.5,192.1z M422.5,88.3c-21.7,0-39.4,17.7-39.4,39.4c0,21.7,17.7,39.4,39.4,39.4s39.4-17.7,39.4-39.4
		C461.9,106,444.2,88.3,422.5,88.3z"/>
</g>
<g>
	<g>
		<path class="st0" d="M585.7,412.2l-52.6-152.5c-9.3-27.1-34.9-45.3-63.6-45.3h-60.1c-5.6,0-10.1,4.5-10.1,10.1v0
			c0,5.6,4.5,10.1,10.1,10.1h60.1c20,0,37.9,12.7,44.4,31.7l52.6,152.5c2.6,7.7,1.5,15.9-3.1,22.6c-4.5,6.5-11.5,10.3-19.2,10.6
			c-0.3,0-0.6,0-0.9,0H332.6c-5.6,0-10.1,4.5-10.1,10.1l0,0c0,5.6,4.5,10.1,10.1,10.1h210.8c0.5,0,1.1,0,1.6,0
			c14.2-0.5,27.1-7.5,35.2-19.4C588.4,440.9,590.5,426,585.7,412.2z"/>
	</g>
	<g>
		<path class="st0" d="M543.3,478.5H332.6c-9,0-16.3-7.3-16.3-16.3c0-9,7.3-16.3,16.3-16.3h210.8c0.2,0,0.5,0,0.7,0
			c5.8-0.2,11-3.1,14.3-8c3.5-5.1,4.4-11.4,2.4-17.2l-52.6-152.5c-5.7-16.5-21.2-27.5-38.6-27.5h-60.1c-9,0-16.3-7.3-16.3-16.3
			c0-9,7.3-16.3,16.3-16.3h60.1c31.3,0,59.2,19.9,69.4,49.4l52.6,152.5c5.4,15.7,3.1,32.5-6.3,46.2c-9.2,13.4-23.8,21.5-40,22
			C544.6,478.5,544,478.5,543.3,478.5z M332.6,458.2c-2.2,0-4,1.8-4,4c0,2.2,1.8,4,4,4h210.8c0.5,0,0.9,0,1.4,0
			c12.3-0.4,23.3-6.5,30.4-16.7c7.2-10.4,8.9-23.3,4.8-35.3l-52.6-152.5c-8.5-24.6-31.7-41.2-57.8-41.2h-60.1c-2.2,0-4,1.8-4,4
			c0,2.2,1.8,4,4,4h60.1c22.6,0,42.8,14.4,50.2,35.8l52.6,152.5c3.3,9.5,1.9,19.8-3.8,28.1c-5.6,8.1-14.3,12.9-24,13.3
			c-0.4,0-0.7,0-1.1,0H332.6z"/>
	</g>
</g>
<g>
	<g>
		<path class="st0" d="M211,340.8V230.4c0-9.7,7.8-17.5,17.5-17.5s17.5,7.8,17.5,17.5v110.4c0,9.7-7.8,17.5-17.5,17.5
			S211,350.5,211,340.8z"/>
	</g>
</g>
</svg>
