<?xml version="1.0" encoding="utf-8"?>
<!-- Generator: Adobe Illustrator 23.0.0, SVG Export Plug-In . SVG Version: 6.00 Build 0)  -->
<svg version="1.1" id="Layer_1" xmlns="http://www.w3.org/2000/svg" xmlns:xlink="http://www.w3.org/1999/xlink" x="0px" y="0px"
	 viewBox="0 0 530.3 495" style="enable-background:new 0 0 530.3 495;" xml:space="preserve">
<style type="text/css">
	.st0{fill:#5E5CDB;}
	.st1{fill:none;stroke:#6666CC;stroke-width:35;stroke-linejoin:round;stroke-miterlimit:10;}
</style>
<g>
	<line class="st0" x1="152.8" y1="13.9" x2="151.9" y2="80.6"/>
	<path class="st0" d="M166.5,84.8c-2,5.7-7.9,9.8-14.8,9.7c-8.4-0.1-15.2-6.4-15.1-14.1l0.9-66.7c0.1-7.7,7-13.8,15.5-13.7
		c8.4,0.1,15.2,6.4,15.1,14.1l-0.9,66.7C167.2,82.2,166.9,83.5,166.5,84.8z"/>
</g>
<g>
	<line class="st0" x1="373.3" y1="13.9" x2="372.4" y2="80.6"/>
	<path class="st0" d="M387,84.8c-2,5.7-7.9,9.8-14.8,9.7c-8.4-0.1-15.2-6.4-15.1-14.1l0.9-66.7c0.1-7.7,7-13.8,15.5-13.7
		c8.4,0.1,15.2,6.4,15.1,14.1l-0.9,66.7C387.6,82.2,387.4,83.5,387,84.8z"/>
</g>
<path class="st1" d="M474.8,477.5H55.4c-21,0-37.9-17-37.9-37.9V155.8V81.3c0-21,17-37.9,37.9-37.9h419.4c21,0,37.9,17,37.9,37.9
	v358.3C512.8,460.6,495.8,477.5,474.8,477.5z"/>
<line class="st1" x1="512.8" y1="159.8" x2="17.5" y2="159.8"/>
<g>
	<path class="st0" d="M212.4,333.8L203,386c-0.4,2.2,0,4.5,1,6.6c2.7,5.1,9,7.1,14.1,4.4l47-24.6l47,24.6l4.7,1
		c2.3,0,4.5-0.7,6.3-2.1c3.1-2.3,4.7-6.1,4.2-9.9l-9.4-52.2l38.1-36.6c2.7-2.9,3.7-7.1,2.6-11c-1.4-3.6-4.6-6.1-8.4-6.8l-52.2-7.8
		l-23.5-47.5c-1-2.1-2.7-3.8-4.8-4.8c-5.2-2.5-11.4-0.3-14,4.8l-23.5,47.5l-52.2,7.8c-3.8,0.6-7,3.2-8.4,6.8c-1.1,3.9-0.1,8,2.6,11
		L212.4,333.8z M241.1,291.5c3.3-0.5,6.1-2.7,7.3-5.7l16.7-33.4l16.7,33.4c1.3,3.1,4,5.3,7.3,5.7l37.1,5.2l-26.6,25.6
		c-2.5,2.5-3.6,5.9-3.1,9.4l6.3,37.1L269.8,351l-4.7-1l-4.7,1l-32.9,17.8l6.3-37.1c0.5-3.5-0.7-6.9-3.1-9.4L204,296.7L241.1,291.5z"
		/>
	<path class="st0" d="M213.3,400.2c-4.5,0-8.8-2.4-11.1-6.7c-1.2-2.4-1.7-5.2-1.2-7.8l9.2-51.2l-37.4-35.9
		c-3.2-3.4-4.4-8.4-3.1-12.9l0.1-0.2c1.7-4.2,5.4-7.3,9.9-8l51.3-7.7l23-46.6c3-6.2,10.4-8.8,16.6-5.8c2.5,1.2,4.6,3.3,5.8,5.8
		l23,46.6l51.2,7.7c4.5,0.8,8.3,3.8,9.9,8l0.1,0.2c1.3,4.5,0.1,9.4-3.1,12.9l-0.1,0.1l-37.4,35.8l9.2,51.2c0.7,4.6-1.2,9.2-5,11.9
		c-2.1,1.6-4.8,2.5-7.5,2.5l-0.4,0l-5-1.1l-46.3-24.2L219,398.8C217.2,399.7,215.2,400.2,213.3,400.2z M175.7,295.8l38.9,37.3
		l-9.6,53.3c-0.3,1.8,0,3.7,0.9,5.3c2.2,4.1,7.3,5.7,11.4,3.6l47.9-25l47.7,24.9l4.2,0.9c1.7,0,3.4-0.6,4.8-1.7
		c2.6-1.9,3.9-5,3.4-8.1l-9.6-53.2l38.9-37.3c2.2-2.4,3-5.8,2.1-8.9c-1.2-2.9-3.8-4.9-6.8-5.5l-53.2-8l-24-48.5
		c-0.8-1.7-2.2-3.1-3.9-3.9c-4.2-2-9.3-0.3-11.3,3.9l-24,48.5l-53.3,8c-3,0.5-5.6,2.6-6.8,5.5C172.6,290,173.5,293.4,175.7,295.8z
		 M224.9,372.5l7-41.1c0.4-2.8-0.5-5.6-2.6-7.6l-29.6-28.4l41.2-5.8c2.6-0.4,4.8-2.1,5.7-4.5l0.1-0.1l18.5-37l18.6,37.2
		c1,2.4,3.2,4.1,5.8,4.5l41.1,5.8L301,323.7c-2,2-3,4.9-2.5,7.7l6.9,41.1l-36.3-19.6l-4-0.9l-4,0.9L224.9,372.5z M265.1,347.9
		l5.4,1.2l29.6,15.9l-5.6-33.1c-0.6-4.1,0.8-8.3,3.7-11.2l23.7-22.8l-33-4.7c-3.9-0.6-7.3-3.2-8.9-6.9l-14.9-29.8l-14.9,29.8
		c-1.5,3.7-4.9,6.3-8.8,6.9l0,0l-33,4.7l23.7,22.8c2.9,2.9,4.3,7.1,3.7,11.1l-5.6,33.1l29.6-15.9L265.1,347.9z"/>
</g>
</svg>
