<?xml version="1.0" encoding="utf-8"?>
<!-- Generator: Adobe Illustrator 23.0.0, SVG Export Plug-In . SVG Version: 6.00 Build 0)  -->
<svg version="1.1" id="Layer_1" xmlns="http://www.w3.org/2000/svg" xmlns:xlink="http://www.w3.org/1999/xlink" x="0px" y="0px"
	 viewBox="0 0 466.8 501.4" style="enable-background:new 0 0 466.8 501.4;" xml:space="preserve">
<style type="text/css">
	.st0{fill:none;stroke:#6666CC;stroke-width:35;stroke-linecap:round;stroke-miterlimit:10;}
	.st1{fill:none;stroke:#6666CC;stroke-width:35;stroke-linecap:round;stroke-linejoin:round;stroke-miterlimit:10;}
	.st2{fill:#5E5CDB;}
</style>
<path class="st0" d="M276.9,483.9H79.7c-34.4,0-62.2-27.9-62.2-62.2V55.4c0-21,17-37.9,37.9-37.9h221.5c34.4,0,62.2,27.9,62.2,62.2
	v341.9C339.1,456,311.3,483.9,276.9,483.9z"/>
<path class="st1" d="M339.1,218.2h106.9l3.2,195.2c0.6,38.8-30.6,70.5-69.4,70.5H282"/>
<path class="st2" d="M183.1,234.7c-23.5,0-42.7-17.9-42.7-40s19.1-40,42.7-40s42.7,17.9,42.7,40c0,8.8,7.6,16,17.1,16
	c9.4,0,17.1-7.2,17.1-16c0-34.2-25.6-62.9-59.7-70.2v-17.8c0-8.8-7.6-16-17.1-16c-9.4,0-17.1,7.2-17.1,16v17.8
	c-34.1,7.3-59.7,36-59.7,70.2c0,39.7,34.4,72,76.8,72c23.5,0,42.7,17.9,42.7,40s-19.1,40-42.7,40s-42.7-17.9-42.7-40
	c0-8.8-7.6-16-17.1-16s-17.1,7.2-17.1,16c0,34.2,25.6,62.9,59.7,70.2v17.8c0,8.8,7.6,16,17.1,16c9.4,0,17.1-7.2,17.1-16v-17.8
	c34.1-7.3,59.7-36,59.7-70.2C259.9,267,225.4,234.7,183.1,234.7z"/>
</svg>
