<?xml version="1.0" encoding="utf-8"?>
<!-- Generator: Adobe Illustrator 23.0.0, SVG Export Plug-In . SVG Version: 6.00 Build 0)  -->
<svg version="1.1" id="Layer_1" xmlns="http://www.w3.org/2000/svg" xmlns:xlink="http://www.w3.org/1999/xlink" x="0px" y="0px"
	 viewBox="0 0 526.8 479" style="enable-background:new 0 0 526.8 479;" xml:space="preserve">
<style type="text/css">
	.st0{fill:#5E5CDB;}
</style>
<g>
	<g>
		<path class="st0" d="M517.7,40.3c-76.4-51.1-175.3-53.8-254.4-6.9c-79-46.9-178-44.2-254.4,6.9C3.4,44,0,50.4,0,57.1v401.5
			c0,7.5,4.1,14.4,10.7,17.9c6.6,3.5,14.6,3.1,20.8-1c66.8-44.7,153.9-44.7,220.6,0c0.3,0.2,0.6,0.2,0.8,0.4
			c0.3,0.2,0.5,0.4,0.9,0.6c0.7,0.3,1.4,0.6,2.2,0.8c0.7,0.3,1.5,0.6,2.3,0.9c1.1,0.3,2.3,0.4,3.4,0.5c0.6,0,1.1,0.2,1.7,0.2
			c0.2,0,0.3,0,0.5,0c0.7,0,1.4-0.1,2-0.3c1-0.1,2-0.3,3-0.5c0.7-0.2,1.4-0.5,2-0.8c0.6-0.3,1.3-0.4,1.9-0.7
			c0.3-0.2,0.5-0.4,0.8-0.6c0.3-0.2,0.6-0.2,0.9-0.4c66.8-44.7,153.9-44.7,220.6,0c9.3,6.2,21.9,3.8,28.1-5.5
			c2.3-3.4,3.5-7.4,3.4-11.4V57.1C526.8,50.4,523.4,44,517.7,40.3z M243.1,424c-64.2-30.1-138.4-30.1-202.6,0V68.3
			c62.4-37.1,140.2-37.1,202.6,0V424z M486.2,424c-64.2-30.1-138.4-30.1-202.6,0V68.3c62.4-37.1,140.2-37.1,202.6,0V424z"/>
	</g>
</g>
</svg>
