<?xml version="1.0" encoding="utf-8"?>
<!-- Generator: Adobe Illustrator 23.0.0, SVG Export Plug-In . SVG Version: 6.00 Build 0)  -->
<svg version="1.1" id="Layer_1" xmlns="http://www.w3.org/2000/svg" xmlns:xlink="http://www.w3.org/1999/xlink" x="0px" y="0px"
	 viewBox="0 0 530.3 495" style="enable-background:new 0 0 530.3 495;" xml:space="preserve">
<style type="text/css">
	.st0{fill:#5E5CDB;}
	.st1{fill:none;stroke:#6666CC;stroke-width:35;stroke-linejoin:round;stroke-miterlimit:10;}
</style>
<g>
	<line class="st0" x1="152.8" y1="13.9" x2="151.9" y2="80.6"/>
	<path class="st0" d="M166.5,84.8c-2,5.7-7.9,9.8-14.8,9.7c-8.4-0.1-15.2-6.4-15.1-14.1l0.9-66.7c0.1-7.7,7-13.8,15.5-13.7
		c8.4,0.1,15.2,6.4,15.1,14.1l-0.9,66.7C167.2,82.2,166.9,83.5,166.5,84.8z"/>
</g>
<g>
	<line class="st0" x1="373.3" y1="13.9" x2="372.4" y2="80.6"/>
	<path class="st0" d="M387,84.8c-2,5.7-7.9,9.8-14.8,9.7c-8.4-0.1-15.2-6.4-15.1-14.1l0.9-66.7c0.1-7.7,7-13.8,15.5-13.7
		c8.4,0.1,15.2,6.4,15.1,14.1l-0.9,66.7C387.6,82.2,387.4,83.5,387,84.8z"/>
</g>
<path class="st1" d="M474.8,477.5H55.4c-21,0-37.9-17-37.9-37.9V155.8V81.3c0-21,17-37.9,37.9-37.9h419.4c21,0,37.9,17,37.9,37.9
	v358.3C512.8,460.6,495.8,477.5,474.8,477.5z"/>
<line class="st1" x1="512.8" y1="159.8" x2="17.5" y2="159.8"/>
<path class="st0" d="M151.9,299c-15.9,0-28.8-12.1-28.8-27c0-14.9,12.9-27,28.8-27s28.8,12.1,28.8,27c0,6,5.2,10.8,11.5,10.8
	s11.5-4.8,11.5-10.8c0-23.1-17.3-42.4-40.3-47.4v-12c0-6-5.2-10.8-11.5-10.8s-11.5,4.8-11.5,10.8v12c-23,4.9-40.3,24.3-40.3,47.4
	c0,26.8,23.2,48.6,51.8,48.6c15.9,0,28.8,12.1,28.8,27s-12.9,27-28.8,27s-28.8-12.1-28.8-27c0-6-5.2-10.8-11.5-10.8
	c-6.4,0-11.5,4.8-11.5,10.8c0,23.1,17.3,42.4,40.3,47.4v12c0,6,5.2,10.8,11.5,10.8s11.5-4.8,11.5-10.8v-12
	c23-4.9,40.3-24.3,40.3-47.4C203.8,320.8,180.5,299,151.9,299z"/>
<g>
	<path class="st0" d="M445.3,419.5H238.4c-9.7,0-17.5-7.8-17.5-17.5s7.8-17.5,17.5-17.5h206.8c9.7,0,17.5,7.8,17.5,17.5
		S454.9,419.5,445.3,419.5z"/>
</g>
<g>
	<path class="st0" d="M348.8,366.4H238.4c-9.7,0-17.5-7.8-17.5-17.5s7.8-17.5,17.5-17.5h110.4c9.7,0,17.5,7.8,17.5,17.5
		S358.5,366.4,348.8,366.4z"/>
</g>
</svg>
