<?xml version="1.0" encoding="utf-8"?>
<!-- Generator: Adobe Illustrator 23.0.0, SVG Export Plug-In . SVG Version: 6.00 Build 0)  -->
<svg version="1.1" id="Layer_1" xmlns="http://www.w3.org/2000/svg" xmlns:xlink="http://www.w3.org/1999/xlink" x="0px" y="0px"
	 viewBox="0 0 171 168.4" style="enable-background:new 0 0 171 168.4;" xml:space="preserve">
<style type="text/css">
	.st0{fill:#5E5CDB;}
</style>
<path class="st0" d="M157.8,90.2h-6.2c-2.5,0-4.6,2-4.6,4.6v58.3H15.3V21.4H79c2.5,0,4.6-2,4.6-4.6v-6.2c0-2.5-2-4.6-4.6-4.6H14.9
	C6.7,6,0,12.7,0,21v132.5c0,8.2,6.7,14.9,14.9,14.9h132.5c8.2,0,14.9-6.7,14.9-14.9V94.8C162.3,92.3,160.3,90.2,157.8,90.2z"/>
<path class="st0" d="M145.3,1.6c-1-1-2.4-1.6-3.9-1.6h0c-1.5,0-2.9,0.6-3.9,1.6L58.2,80.9c-1,1-1.6,2.4-1.6,3.9l0,24.1
	c0,1.5,0.6,2.9,1.6,3.9c1,1,2.5,1.6,3.9,1.6h0l24.1,0c1.5,0,2.9-0.6,3.9-1.6l79.2-79.2c1-1,1.6-2.4,1.6-3.9c0-1.5-0.6-2.9-1.6-3.9
	L145.3,1.6z M138.7,48.6c-1.3,1.3-3.5,3.5-7.4,7.4l-47.4,47.4l-16.3,0l0-16.3l54.8-54.8L138.7,48.6z M157.6,29.6l-11.1,11.1
	l-16.3-16.3l11.1-11.1L157.6,29.6z"/>
</svg>
