<?xml version="1.0" encoding="utf-8"?>
<!-- Generator: Adobe Illustrator 23.0.0, SVG Export Plug-In . SVG Version: 6.00 Build 0)  -->
<svg version="1.1" id="Layer_1" xmlns="http://www.w3.org/2000/svg" xmlns:xlink="http://www.w3.org/1999/xlink" x="0px" y="0px"
	 viewBox="0 0 468.4 489.3" style="enable-background:new 0 0 468.4 489.3;" xml:space="preserve">
<style type="text/css">
	.st0{fill:#5E5CDB;}
	.st1{fill:none;stroke:#6666CC;stroke-width:35;stroke-linejoin:round;stroke-miterlimit:10;}
	.st2{fill:#6666CC;}
</style>
<g>
	<line class="st0" x1="218.7" y1="404.5" x2="217.9" y2="466"/>
	<path class="st0" d="M230.1,469.8c-1.7,5.3-6.6,9-12.4,9c-7.1-0.1-12.7-5.9-12.6-13l0.8-61.4c0.1-7.1,5.9-12.7,13-12.6
		c7.1,0.1,12.7,5.9,12.6,13l-0.8,61.4C230.7,467.4,230.5,468.7,230.1,469.8z"/>
</g>
<g>
	<line class="st0" x1="286.6" y1="404.5" x2="285.8" y2="466"/>
	<path class="st0" d="M298,469.8c-1.7,5.3-6.6,9-12.4,9c-7.1-0.1-12.7-5.9-12.6-13l0.8-61.4c0.1-7.1,5.9-12.7,13-12.6
		c7.1,0.1,12.7,5.9,12.6,13l-0.8,61.4C298.6,467.4,298.4,468.7,298,469.8z"/>
</g>
<path class="st1" d="M417.7,397.4h-367c-18.3,0-33.2-14.9-33.2-33.2V115.8V50.7c0-18.3,14.9-33.2,33.2-33.2h367
	c18.3,0,33.2,14.9,33.2,33.2v313.5C450.9,382.5,436,397.4,417.7,397.4z"/>
<g>
	<path class="st0" d="M325.8,489.3H177.7c-8.2,0-14.8-6.6-14.8-14.8s6.6-14.8,14.8-14.8h148.2c8.2,0,14.8,6.6,14.8,14.8
		S334,489.3,325.8,489.3z"/>
</g>
<path class="st2" d="M310.6,67.2L310.6,67.2c0,6.5,4.3,12.4,10.6,14.2c29.5,8.6,51,36.3,50,68.8c-1.2,35.7-29.8,64.9-65.4,66.9
	c-35.8,1.9-66.1-23.5-72-57.1c-1.2-7-7.4-12-14.5-12h0c-9.2,0-16.2,8.4-14.6,17.4c8.5,47.5,51,83.3,101.3,81.3
	c51.2-2,92.8-43.5,94.8-94.7c1.9-46.7-28.8-86.6-71.1-99C320,50.2,310.6,57.3,310.6,67.2z"/>
<g>
	<path class="st0" d="M307.7,347.5H100.9c-9.7,0-17.5-7.8-17.5-17.5s7.8-17.5,17.5-17.5h206.8c9.7,0,17.5,7.8,17.5,17.5
		S317.4,347.5,307.7,347.5z"/>
</g>
<g>
	<path class="st0" d="M211.3,294.4H100.9c-9.7,0-17.5-7.8-17.5-17.5s7.8-17.5,17.5-17.5h110.4c9.7,0,17.5,7.8,17.5,17.5
		S220.9,294.4,211.3,294.4z"/>
</g>
</svg>
