<?xml version="1.0" encoding="utf-8"?>
<!-- Generator: Adobe Illustrator 23.0.0, SVG Export Plug-In . SVG Version: 6.00 Build 0)  -->
<svg version="1.1" id="Layer_1" xmlns="http://www.w3.org/2000/svg" xmlns:xlink="http://www.w3.org/1999/xlink" x="0px" y="0px"
	 viewBox="0 0 446.8 479.8" style="enable-background:new 0 0 446.8 479.8;" xml:space="preserve">
<style type="text/css">
	.st0{fill:none;stroke:#6666CC;stroke-width:35;stroke-linecap:round;stroke-miterlimit:10;}
	.st1{fill:none;stroke:#6666CC;stroke-width:33;stroke-linecap:round;stroke-linejoin:round;stroke-miterlimit:10;}
	.st2{fill:none;stroke:#6666CC;stroke-width:35;stroke-linecap:round;stroke-linejoin:round;stroke-miterlimit:10;}
	.st3{fill:#5E5CDB;}
</style>
<path class="st0" d="M262,462.3H79.7c-34.4,0-62.2-27.9-62.2-62.2V55.4c0-21,17-37.9,37.9-37.9H262c34.4,0,62.2,27.9,62.2,62.2V400
	C324.2,434.4,296.4,462.3,262,462.3z"/>
<polyline class="st1" points="80.7,183 133.4,140.3 187.8,177.1 260.6,116.9 "/>
<path class="st2" d="M324.2,208.9h102l3.1,186.1c0.6,37-29.2,67.2-66.1,67.2h-93.3"/>
<g>
	<path class="st3" d="M274.1,406.6H67.2c-9.7,0-17.5-7.8-17.5-17.5s7.8-17.5,17.5-17.5h206.8c9.7,0,17.5,7.8,17.5,17.5
		S283.7,406.6,274.1,406.6z"/>
</g>
<g>
	<path class="st3" d="M177.6,353.5H67.2c-9.7,0-17.5-7.8-17.5-17.5s7.8-17.5,17.5-17.5h110.4c9.7,0,17.5,7.8,17.5,17.5
		S187.3,353.5,177.6,353.5z"/>
</g>
</svg>
