<?xml version="1.0" encoding="utf-8"?>
<!-- Generator: Adobe Illustrator 23.0.0, SVG Export Plug-In . SVG Version: 6.00 Build 0)  -->
<svg version="1.1" id="Layer_1" xmlns="http://www.w3.org/2000/svg" xmlns:xlink="http://www.w3.org/1999/xlink" x="0px" y="0px"
	 viewBox="0 0 270 238.8" style="enable-background:new 0 0 270 238.8;" xml:space="preserve">
<style type="text/css">
	.st0{fill:#6666CC;}
</style>
<g>
	<path class="st0" d="M135,112.8c-4.1,0-8.2-0.9-12-2.6c-0.2-0.1-0.4-0.2-0.7-0.3L42.9,65.8c-4.2-2.3-5.7-7.6-3.4-11.7
		c2.3-4.2,7.6-5.7,11.7-3.4l79.1,43.9c3,1.2,6.3,1.2,9.3,0l77.8-43.9c4.2-2.3,9.4-0.9,11.8,3.3c2.3,4.2,0.9,9.4-3.3,11.8l-78.2,44.1
		c-0.2,0.1-0.5,0.3-0.7,0.4C143.2,111.9,139.1,112.8,135,112.8z"/>
</g>
<g>
	<path class="st0" d="M242,238.8H28c-15.4,0-28-12.6-28-28V28C0,12.6,12.6,0,28,0H242c15.4,0,28,12.6,28,28v182.9
		C270,226.3,257.5,238.8,242,238.8z M28,17.3c-5.9,0-10.7,4.8-10.7,10.7v182.9c0,5.9,4.8,10.7,10.7,10.7H242
		c5.9,0,10.7-4.8,10.7-10.7V28c0-5.9-4.8-10.7-10.7-10.7H28z"/>
</g>
</svg>
