<?xml version="1.0" encoding="utf-8"?>
<!-- Generator: Adobe Illustrator 23.0.0, SVG Export Plug-In . SVG Version: 6.00 Build 0)  -->
<svg version="1.1" id="Layer_1" xmlns="http://www.w3.org/2000/svg" xmlns:xlink="http://www.w3.org/1999/xlink" x="0px" y="0px"
	 viewBox="0 0 490.2 495.4" style="enable-background:new 0 0 490.2 495.4;" xml:space="preserve">
<style type="text/css">
	.st0{fill:#5E5CDB;}
</style>
<g>
	<path class="st0" d="M260.4,493.9h-30.6c-24.7,0-44.9-20.3-44.9-45.3v-10.5c-10.5-3.4-20.7-7.7-30.5-12.8l-7.3,7.4
		c-17.8,18-46.2,17.4-63.4,0L62,410.9c-17.3-17.4-17.8-46.2,0-64.1l7.3-7.4c-5.1-9.9-9.3-20.2-12.7-30.9H46.4
		c-24.7,0-44.9-20.3-44.9-45.3v-30.9c0-25,20.1-45.3,44.9-45.3h10.3c3.4-10.6,7.6-21,12.7-30.9l-7.3-7.4
		c-17.8-17.9-17.3-46.7,0-64.1l21.6-21.8c17.3-17.5,45.7-17.9,63.4,0l7.3,7.4c9.8-5.1,20-9.4,30.5-12.8V46.8
		c0-25,20.1-45.3,44.9-45.3h30.6c24.7,0,44.9,20.3,44.9,45.3v10.5c10.5,3.4,20.7,7.7,30.5,12.8l7.3-7.4c17.8-18,46.2-17.4,63.4,0
		l21.6,21.8c17.3,17.4,17.8,46.2,0,64.1l-7.3,7.4c5.1,9.9,9.3,20.2,12.7,30.9h10.3c24.7,0,44.9,20.3,44.9,45.3v30.9
		c0,25-20.1,45.3-44.9,45.3h-10.3c-3.4,10.6-7.6,21-12.7,30.9l7.3,7.4c17.8,17.9,17.3,46.7,0,64.1l-21.6,21.8
		c-17.3,17.5-45.7,17.9-63.4,0l-7.3-7.4c-9.8,5.1-20,9.4-30.5,12.8v10.5C305.3,473.6,285.1,493.9,260.4,493.9z M159.2,395
		c13.6,8.1,28.3,14.3,43.6,18.3c6.3,1.6,10.7,7.4,10.7,14v21.3c0,9.1,7.3,16.5,16.3,16.5h30.6c9,0,16.3-7.4,16.3-16.5v-21.3
		c0-6.6,4.4-12.3,10.7-14c15.3-4,30-10.1,43.6-18.3c5.6-3.4,12.8-2.4,17.4,2.2l14.9,15.1c6.4,6.5,16.8,6.4,23.1,0l21.6-21.9
		c6.3-6.3,6.5-16.8,0-23.3l-14.9-15.1c-4.6-4.7-5.5-11.9-2.2-17.5c8.1-13.8,14.2-28.6,18.1-44.1c1.6-6.4,7.3-10.8,13.8-10.8h21.1
		c9,0,16.3-7.4,16.3-16.5v-30.9c0-9.1-7.3-16.5-16.3-16.5h-21.1c-6.5,0-12.2-4.5-13.8-10.8c-4-15.5-10-30.3-18.1-44.1
		c-3.3-5.7-2.4-12.9,2.2-17.5l14.9-15.1c6.5-6.5,6.3-17,0-23.3l-21.6-21.9c-6.3-6.3-16.6-6.5-23.1,0l-14.9,15.1
		c-4.6,4.7-11.8,5.6-17.4,2.2c-13.6-8.1-28.3-14.3-43.6-18.3c-6.3-1.6-10.7-7.4-10.7-14V46.8c0-9.1-7.3-16.5-16.3-16.5h-30.6
		c-9,0-16.3,7.4-16.3,16.5v21.3c0,6.6-4.4,12.3-10.7,14c-15.3,4-30,10.1-43.6,18.3c-5.6,3.4-12.8,2.4-17.4-2.2l-14.9-15.1
		c-6.4-6.5-16.8-6.4-23.1,0l-21.6,21.9c-6.3,6.3-6.5,16.8,0,23.3l14.9,15.1c4.6,4.7,5.5,11.9,2.2,17.5
		c-8.1,13.8-14.2,28.6-18.1,44.1c-1.6,6.4-7.3,10.8-13.8,10.8H46.4c-9,0-16.3,7.4-16.3,16.5v30.9c0,9.1,7.3,16.5,16.3,16.5h21.1
		c6.5,0,12.2,4.5,13.8,10.8c4,15.5,10,30.3,18.1,44.1c3.3,5.7,2.4,12.9-2.2,17.5l-14.9,15.1c-6.5,6.5-6.3,17,0,23.3l21.6,21.9
		c6.3,6.3,16.6,6.5,23.1,0l14.9-15.1C145.2,393.8,152.3,390.9,159.2,395L159.2,395z"/>
	<path class="st0" d="M260.4,495.4h-30.6c-25.6,0-46.4-21-46.4-46.8v-9.4c-9.9-3.2-19.5-7.3-28.8-12.1l-6.6,6.6
		c-8.7,8.8-20.4,13.7-32.7,13.7c0,0,0,0,0,0c-12.4,0-24.1-4.9-32.9-13.7L61,412c-18.1-18.3-18.1-48,0-66.2l6.6-6.6
		c-4.7-9.3-8.7-19.1-11.9-29.1h-9.2C20.8,310,0,289,0,263.2v-30.9c0-25.8,20.8-46.8,46.4-46.8h9.2c3.2-10,7.2-19.7,11.9-29.1
		l-6.6-6.6c-18.1-18.3-18.1-48,0-66.2l21.6-21.8c8.7-8.9,20.4-13.7,32.8-13.7c12.4,0,24,4.9,32.7,13.7l6.5,6.6
		c9.2-4.8,18.9-8.8,28.8-12.1v-9.4C183.5,21,204.3,0,229.8,0h30.6c25.6,0,46.4,21,46.4,46.8v9.4c9.9,3.2,19.5,7.3,28.8,12.1l6.6-6.6
		c8.7-8.8,20.4-13.7,32.7-13.7c0,0,0,0,0,0c12.4,0,24.1,4.9,32.9,13.7l21.6,21.8c18.1,18.3,18.1,48,0,66.2l-6.6,6.6
		c4.7,9.3,8.7,19.1,11.9,29.1h9.2c25.6,0,46.4,21,46.4,46.8v30.9c0,25.8-20.8,46.8-46.4,46.8h-9.2c-3.2,10-7.2,19.7-11.9,29.1
		l6.6,6.6c18.1,18.3,18.1,48,0,66.2l-21.6,21.8c-8.7,8.9-20.4,13.7-32.8,13.7c-12.4,0-24-4.9-32.7-13.7l-6.5-6.6
		c-9.2,4.8-18.9,8.8-28.8,12.1v9.4C306.8,474.4,286,495.4,260.4,495.4z M154.1,423.5l1,0.5c9.7,5.1,19.9,9.4,30.3,12.7l1,0.3v11.5
		c0,24.2,19.4,43.8,43.4,43.8h30.6c23.9,0,43.4-19.7,43.4-43.8v-11.5l1-0.3c10.4-3.4,20.6-7.6,30.3-12.7l1-0.5l8.1,8.2
		c8.2,8.3,19.1,12.8,30.6,12.8c11.6,0,22.5-4.6,30.7-12.8l21.6-21.8c16.9-17.1,16.9-44.9,0-62l-8.1-8.2l0.5-1
		c5-9.8,9.3-20.1,12.6-30.6l0.3-1h11.4c23.9,0,43.4-19.7,43.4-43.8v-30.9c0-24.2-19.4-43.8-43.4-43.8h-11.4l-0.3-1
		c-3.3-10.5-7.6-20.8-12.6-30.6l-0.5-1l8.1-8.2c16.9-17.1,16.9-44.9,0-62l-21.6-21.8c-8.2-8.3-19.1-12.8-30.7-12.8
		c-11.5,0-22.4,4.6-30.6,12.8l-8.1,8.2l-1-0.5c-9.7-5.1-19.9-9.4-30.3-12.7l-1-0.3V46.8c0-24.2-19.4-43.8-43.4-43.8h-30.6
		c-23.9,0-43.4,19.7-43.4,43.8v11.5l-1,0.3c-10.4,3.4-20.6,7.6-30.3,12.7l-1,0.5l-8.1-8.2c-8.2-8.3-19.1-12.8-30.6-12.8
		c-11.6,0-22.5,4.6-30.7,12.8L63.1,85.6c-16.9,17.1-16.9,44.9,0,62l8.1,8.2l-0.5,1c-5,9.8-9.3,20.1-12.6,30.6l-0.3,1H46.4
		C22.4,188.4,3,208.1,3,232.3v30.9C3,287.3,22.4,307,46.4,307h11.4l0.3,1c3.3,10.5,7.6,20.8,12.6,30.6l0.5,1l-8.1,8.2
		c-16.9,17.1-16.9,44.9,0,62l21.6,21.8c8.2,8.3,19.1,12.8,30.7,12.8c11.5,0,22.4-4.6,30.6-12.8L154.1,423.5z M260.4,466.6h-30.6
		c-9.8,0-17.8-8.1-17.8-18v-21.3c0-5.9-3.9-11-9.6-12.5c-15.4-4-30.2-10.2-44-18.5v0c-6.7-4-13.1-0.5-15.5,2L128,413.4
		c-3.4,3.4-7.8,5.3-12.6,5.3c-4.8,0-9.3-1.9-12.6-5.3l-21.6-21.9c-6.9-7-6.9-18.4,0-25.4L96.1,351c4.1-4.2,4.9-10.6,2-15.7
		c-8.1-13.9-14.3-28.9-18.3-44.5c-1.5-5.7-6.5-9.7-12.4-9.7H46.4c-9.8,0-17.8-8.1-17.8-18v-30.9c0-9.9,8-18,17.8-18h21.1
		c5.8,0,10.9-4,12.4-9.7c4-15.6,10.1-30.6,18.3-44.5c3-5.1,2.2-11.6-2-15.7l-14.9-15.1c-6.9-7-6.9-18.4,0-25.4L102.8,82
		c3.4-3.4,7.8-5.3,12.6-5.3c4.8,0,9.2,1.9,12.6,5.3l14.9,15.1c4.1,4.2,10.5,5,15.5,2c13.8-8.2,28.6-14.4,44-18.5
		c5.6-1.5,9.6-6.6,9.6-12.5V46.8c0-9.9,8-18,17.8-18h30.6c9.8,0,17.8,8.1,17.8,18v21.3c0,5.9,3.9,11,9.6,12.5
		c15.4,4,30.2,10.2,44,18.5c5,3,11.4,2.2,15.5-2L362.3,82c3.4-3.4,7.8-5.3,12.6-5.3c4.8,0,9.3,1.9,12.6,5.3l21.6,21.9
		c6.9,7,6.9,18.4,0,25.4l-14.9,15.1c-4.1,4.2-4.9,10.6-2,15.7c8.1,13.9,14.3,28.9,18.3,44.5c1.5,5.7,6.5,9.7,12.4,9.7h21.1
		c9.8,0,17.8,8.1,17.8,18v30.9c0,9.9-8,18-17.8,18h-21.1c-5.8,0-10.9,4-12.4,9.7c-4,15.6-10.1,30.6-18.3,44.5
		c-3,5.1-2.2,11.6,2,15.7l14.9,15.1c6.9,7,6.9,18.4,0,25.4l-21.6,21.9c-3.4,3.4-7.8,5.3-12.6,5.3c-4.8,0-9.2-1.9-12.6-5.3
		l-14.9-15.1c-4.1-4.2-10.5-5-15.5-2c-13.8,8.2-28.6,14.4-44,18.5c-5.6,1.5-9.6,6.6-9.6,12.5v21.3
		C278.2,458.5,270.2,466.6,260.4,466.6z M160,393.8c13.5,8.1,28.1,14.2,43.2,18.1c7,1.8,11.8,8.2,11.8,15.4v21.3
		c0,8.3,6.6,15,14.8,15h30.6c8.2,0,14.8-6.7,14.8-15v-21.3c0-7.3,4.9-13.6,11.8-15.4c15.2-4,29.7-10.1,43.2-18.1
		c6.2-3.7,14.1-2.7,19.2,2.4l14.9,15.1c2.8,2.8,6.5,4.4,10.4,4.4c4,0,7.7-1.6,10.5-4.4l21.6-21.9c5.8-5.8,5.8-15.3,0-21.2L392,353.2
		c-5.1-5.1-6.1-13.1-2.4-19.4c8-13.7,14-28.4,17.9-43.7c1.8-7,8.1-12,15.3-12h21.1c8.2,0,14.8-6.7,14.8-15v-30.9
		c0-8.3-6.6-15-14.8-15h-21.1c-7.2,0-13.5-4.9-15.3-12c-3.9-15.3-10-30-17.9-43.7c-3.7-6.3-2.7-14.2,2.4-19.4l14.9-15.1
		c5.8-5.8,5.8-15.3,0-21.2l-21.6-21.9c-2.8-2.8-6.5-4.4-10.5-4.4c-3.9,0-7.6,1.6-10.4,4.4l-14.9,15.1c-5.1,5.2-13,6.2-19.2,2.4
		c-13.5-8.1-28.1-14.2-43.2-18.1c-7-1.8-11.8-8.2-11.8-15.4V46.8c0-8.3-6.6-15-14.8-15h-30.6c-8.2,0-14.8,6.7-14.8,15v21.3
		c0,7.3-4.9,13.6-11.8,15.4c-15.2,4-29.7,10.1-43.2,18.1c-6.2,3.7-14.1,2.7-19.2-2.4l-14.9-15.1c-2.8-2.8-6.5-4.4-10.5-4.4
		c-4,0-7.7,1.6-10.5,4.4L83.3,106c-5.8,5.8-5.8,15.3,0,21.2l14.9,15.1c5.1,5.1,6.1,13.1,2.4,19.4c-8,13.7-14,28.4-17.9,43.7
		c-1.8,7-8.1,12-15.3,12H46.4c-8.2,0-14.8,6.7-14.8,15v30.9c0,8.3,6.6,15,14.8,15h21.1c7.2,0,13.5,4.9,15.3,12
		c3.9,15.3,10,30,17.9,43.7c3.7,6.3,2.7,14.2-2.4,19.4l-14.9,15.1c-5.8,5.8-5.8,15.3,0,21.2l21.6,21.9c2.8,2.8,6.5,4.4,10.5,4.4
		c3.9,0,7.6-1.6,10.4-4.4l14.9-15.1C144.9,392,152.7,389.4,160,393.8L160,393.8z"/>
</g>
<g>
	<path class="st0" d="M245.1,354.9c-58.5,0-106-48.1-106-107.1s47.6-107.1,106-107.1s106,48.1,106,107.1S303.6,354.9,245.1,354.9z
		 M245.1,169.4c-42.7,0-77.5,35.1-77.5,78.3s34.7,78.3,77.5,78.3s77.5-35.1,77.5-78.3S287.8,169.4,245.1,169.4L245.1,169.4z"/>
	<path class="st0" d="M245.1,356.4c-59.3,0-107.5-48.7-107.5-108.6c0-59.9,48.2-108.6,107.5-108.6s107.5,48.7,107.5,108.6
		C352.6,307.6,304.4,356.4,245.1,356.4z M245.1,142.1c-57.6,0-104.5,47.4-104.5,105.6c0,58.3,46.9,105.6,104.5,105.6
		S349.6,306,349.6,247.7C349.6,189.5,302.7,142.1,245.1,142.1z M245.1,327.5c-43.5,0-79-35.8-79-79.8s35.4-79.8,79-79.8
		s79,35.8,79,79.8S288.6,327.5,245.1,327.5z M245.1,170.9c-41.9,0-76,34.4-76,76.8c0,42.3,34.1,76.8,76,76.8s76-34.4,76-76.8
		C321.1,205.4,287,170.9,245.1,170.9z"/>
</g>
</svg>
