<?xml version="1.0" encoding="utf-8"?>
<!-- Generator: Adobe Illustrator 23.0.0, SVG Export Plug-In . SVG Version: 6.00 Build 0)  -->
<svg version="1.1" id="Layer_1" xmlns="http://www.w3.org/2000/svg" xmlns:xlink="http://www.w3.org/1999/xlink" x="0px" y="0px"
	 viewBox="0 0 149.2 132" style="enable-background:new 0 0 149.2 132;" xml:space="preserve">
<style type="text/css">
	.st0{fill:#6666CC;}
	.st1{fill:#5E5CDB;}
</style>
<g>
	<path class="st0" d="M133.7,132H15.5C6.9,132,0,125,0,116.5v-101C0,6.9,6.9,0,15.5,0h118.3c8.5,0,15.5,6.9,15.5,15.5v101
		C149.2,125,142.3,132,133.7,132z M15.5,9.5c-3.3,0-5.9,2.7-5.9,5.9v101c0,3.3,2.7,5.9,5.9,5.9h118.3c3.3,0,5.9-2.7,5.9-5.9v-101
		c0-3.3-2.7-5.9-5.9-5.9H15.5z"/>
</g>
<g>
	<path class="st0" d="M116.8,48.2H77.8c-2.5,0-4.5-2-4.5-4.5c0-2.5,2-4.5,4.5-4.5h39.1c2.5,0,4.5,2,4.5,4.5
		C121.3,46.2,119.3,48.2,116.8,48.2z"/>
</g>
<g>
	<path class="st0" d="M116.8,91H77.8c-2.5,0-4.5-2-4.5-4.5s2-4.5,4.5-4.5h39.1c2.5,0,4.5,2,4.5,4.5S119.3,91,116.8,91z"/>
</g>
<g>
	<path class="st1" d="M55.1,47.6c-1.3,0-2.3,1-2.3,2.3v4.6H34.1V36h11.6c1.3,0,2.3-1,2.3-2.3s-1-2.3-2.3-2.3H34.1
		c-2.6,0-4.6,2.1-4.6,4.6v18.6c0,2.6,2.1,4.6,4.6,4.6h18.6c2.6,0,4.6-2.1,4.6-4.6v-4.6C57.4,48.6,56.3,47.6,55.1,47.6z"/>
	<path class="st0" d="M52.7,59.6H34.1c-2.8,0-5.1-2.3-5.1-5.1V36c0-2.8,2.3-5.1,5.1-5.1h11.6c1.5,0,2.7,1.2,2.7,2.7
		c0,1.5-1.2,2.7-2.7,2.7H34.5v17.8h17.8v-4.2c0-1.5,1.2-2.7,2.7-2.7c1.5,0,2.7,1.2,2.7,2.7v4.6C57.8,57.4,55.5,59.6,52.7,59.6z
		 M34.1,31.7c-2.3,0-4.2,1.9-4.2,4.2v18.6c0,2.3,1.9,4.2,4.2,4.2h18.6c2.3,0,4.2-1.9,4.2-4.2v-4.6c0-1.1-0.9-1.9-1.9-1.9
		c-1.1,0-1.9,0.9-1.9,1.9V55H33.7V35.6h12c1.1,0,1.9-0.9,1.9-1.9c0-1.1-0.9-1.9-1.9-1.9H34.1z"/>
</g>
<g>
	<path class="st1" d="M57.8,27.6L45.5,44.1l-2.8-2.8c-0.9-0.9-2.4-0.9-3.3,0s-0.9,2.3,0,3.3l4.6,4.6c0.4,0.4,1,0.7,1.6,0.7
		c0.1,0,0.1,0,0.2,0c0.7,0,1.3-0.4,1.7-0.9l13.9-18.6c0.8-1,0.6-2.5-0.5-3.3C60.1,26.4,58.6,26.6,57.8,27.6L57.8,27.6z"/>
	<path class="st0" d="M45.8,50.3c-0.7,0-1.4-0.3-1.9-0.8l-4.6-4.6c-1-1.1-1-2.8,0-3.8c1-1,2.8-1.1,3.8,0l2.4,2.4l12.1-16.1
		c0.9-1.2,2.6-1.5,3.8-0.5c1.2,0.9,1.5,2.6,0.5,3.8L47.9,49.2c-0.5,0.6-1.2,1-2,1.1C45.9,50.3,45.8,50.3,45.8,50.3z M41.1,41.1
		c-0.5,0-1,0.2-1.4,0.6c-0.7,0.7-0.7,1.9,0,2.7l4.6,4.6c0.4,0.4,0.8,0.6,1.4,0.6c0,0,0.1,0,0.1,0c0.5,0,1.1-0.3,1.4-0.8l13.9-18.6
		c0.6-0.8,0.5-2-0.4-2.7c-0.8-0.6-2-0.5-2.7,0.4L45.5,44.7l-3.1-3.1C42.1,41.2,41.6,41.1,41.1,41.1z"/>
</g>
<g>
	<path class="st1" d="M34.1,100.5h18.6c2.6,0,4.6-2.1,4.6-4.6V77.2c0-2.6-2.1-4.6-4.6-4.6H34.1c-2.6,0-4.6,2.1-4.6,4.6v18.6
		C29.5,98.4,31.6,100.5,34.1,100.5z M34.1,77.2h18.6v18.6H34.1V77.2z"/>
	<path class="st0" d="M52.7,100.9H34.1c-2.8,0-5.1-2.3-5.1-5.1V77.2c0-2.8,2.3-5.1,5.1-5.1h18.6c2.8,0,5.1,2.3,5.1,5.1v18.6
		C57.8,98.6,55.5,100.9,52.7,100.9z M34.1,100.1h18.6c2.3,0,4.2-1.9,4.2-4.2V77.2c0-2.3-1.9-4.2-4.2-4.2H34.1
		c-2.3,0-4.2,1.9-4.2,4.2v18.6C29.9,98.2,31.8,100.1,34.1,100.1L34.1,100.1z M53.1,96.2H33.7V76.8h19.4V96.2z M34.5,95.4h17.8V77.7
		H34.5V95.4z"/>
</g>
</svg>
