<?xml version="1.0" encoding="utf-8"?>
<!-- Generator: Adobe Illustrator 23.0.0, SVG Export Plug-In . SVG Version: 6.00 Build 0)  -->
<svg version="1.1" id="Layer_1" xmlns="http://www.w3.org/2000/svg" xmlns:xlink="http://www.w3.org/1999/xlink" x="0px" y="0px"
	 viewBox="0 0 547.6 484.4" style="enable-background:new 0 0 547.6 484.4;" xml:space="preserve">
<style type="text/css">
	.st0{fill:#6666CC;}
</style>
<g>
	<path class="st0" d="M293.8,260.3c-3.5,0-7-1-10-3.2c-7.9-5.5-9.8-16.3-4.5-24.2l53.8-129.8c3.7-8.9,13.9-13.2,22.9-9.5
		c8.9,3.7,13.2,13.9,9.5,22.9l-54.2,130.8c-0.2,0.5-0.4,1-0.7,1.5c-0.8,1.4-1.5,2.7-2.4,3.9C304.8,257.7,299.3,260.3,293.8,260.3z"
		/>
</g>
<g>
	<path class="st0" d="M286.7,260.3c-0.1,0-0.2,0-0.2,0L189,259c-9.7-0.1-17.4-8.1-17.3-17.7c0.1-9.7,8.1-17.4,17.7-17.3l96.5,1.3
		c9.5-1.6,18.5,4.7,20.2,14.2c1.7,9.5-4.7,18.6-14.2,20.3c-1.3,0.2-2.7,0.4-4.2,0.5C287.4,260.3,287,260.3,286.7,260.3z"/>
</g>
<g>
	<path class="st0" d="M490.8,484.4H56.8C25.5,484.4,0,458.9,0,427.6V56.8C0,25.5,25.5,0,56.8,0h434.1c31.3,0,56.8,25.5,56.8,56.8
		v370.8C547.6,458.9,522.1,484.4,490.8,484.4z M56.8,35C44.8,35,35,44.8,35,56.8v370.8c0,12,9.8,21.8,21.8,21.8h434.1
		c12,0,21.8-9.8,21.8-21.8V56.8c0-12-9.8-21.8-21.8-21.8H56.8z"/>
</g>
<g>
	<path class="st0" d="M530.1,259.7h-56.3c-9.7,0-17.5-7.8-17.5-17.5s7.8-17.5,17.5-17.5h56.3c9.7,0,17.5,7.8,17.5,17.5
		S539.8,259.7,530.1,259.7z"/>
</g>
<g>
	<path class="st0" d="M74.8,259.7H18.5c-9.7,0-17.5-7.8-17.5-17.5s7.8-17.5,17.5-17.5h56.3c9.7,0,17.5,7.8,17.5,17.5
		S84.5,259.7,74.8,259.7z"/>
</g>
<g>
	<path class="st0" d="M269.8,92.8c-9.7,0-17.5-7.8-17.5-17.5V19c0-9.7,7.8-17.5,17.5-17.5s17.5,7.8,17.5,17.5v56.3
		C287.3,84.9,279.5,92.8,269.8,92.8z"/>
</g>
<g>
	<path class="st0" d="M269.8,473.1c-9.7,0-17.5-7.8-17.5-17.5v-56.3c0-9.7,7.8-17.5,17.5-17.5s17.5,7.8,17.5,17.5v56.3
		C287.3,465.2,279.5,473.1,269.8,473.1z"/>
</g>
</svg>
